<svg width="800" height="600" xmlns="http://www.w3.org/2000/svg">

 <g>
  <title>Layer 1</title>
  <path stroke="#000" id="svg_8" d="m516.66489,154.44227c-34.08614,-28.316 -70.84991,-50.99889 -101.00754,-54.09125c-1.64176,-0.20059 -3.34216,-0.31759 -5.14028,-0.35102l-198.47748,0c-3.16626,0 -6.29343,1.05307 -8.52153,3.00878c-2.20856,1.90556 -3.51806,4.58004 -3.51806,7.30466l0,430.42324c0,2.70791 1.23132,5.2988 3.51806,7.27123c2.28674,1.93899 5.29664,2.99207 8.52153,2.99207l358.92077,0c3.16626,0 6.1957,-1.03636 8.48244,-2.99207c2.28674,-1.95571 3.55715,-4.54661 3.55715,-7.27123l0,-286.4195c-0.70361,-33.24706 -31.15442,-69.50291 -66.33506,-99.87491zm42.21677,375.94754l-334.84157,0l0,-409.82979l186.49651,0l0,0.03343c8.13064,-0.41789 15.14722,6.45217 20.52204,22.16471c4.8862,14.96034 6.11752,34.46729 6.09798,47.9901c0.03909,9.91227 -0.52771,16.56503 -0.52771,16.56503l-0.9577,10.89848l12.82139,0.11701c0.05863,0 29.62992,0.30088 58.63441,5.93399c27.87089,5.14836 49.66334,15.41166 51.696,27.02891c0.07818,1.03636 0.09772,2.07272 0.07818,3.04221l0,276.05591l-0.01954,0z" fill="#84D3DB"/>
  <rect id="svg_9" height="114" width="335" y="271" x="224" stroke="#000" fill="#84D3DB"/>
  <text transform="matrix(10.6565 0 0 4.03021 -3874.38 -950.172)" stroke="#000" xml:space="preserve" text-anchor="start" font-family="Noto Sans JP" font-size="24" stroke-width="0" id="svg_10" y="325" x="385" fill="#000000">PY</text>
 </g>
</svg>